<svg width="143" height="46" viewBox="0 0 143 46" fill="none" xmlns="http://www.w3.org/2000/svg">
<path d="M65.8222 29.7212C65.8222 28.8814 65.5073 28.199 64.8774 27.6741C64.2737 27.1491 63.4995 26.6767 62.5546 26.2568C61.636 25.8106 60.6256 25.3644 59.5233 24.9183C58.4472 24.4458 57.4367 23.8816 56.4919 23.2254C55.5733 22.543 54.7991 21.7032 54.1692 20.7058C53.5655 19.7085 53.2637 18.4356 53.2637 16.8871C53.2637 15.5486 53.4868 14.3938 53.9329 13.4227C54.3791 12.4253 55.009 11.5986 55.8226 10.9425C56.6625 10.2863 57.6467 9.80077 58.7753 9.48582C59.9038 9.17087 61.1636 9.0134 62.5546 9.0134C64.1556 9.0134 65.6648 9.15775 67.082 9.44645C68.4993 9.70891 69.6672 10.1026 70.5858 10.6275L68.893 15.1549C68.3156 14.7874 67.4495 14.4594 66.2947 14.1707C65.1398 13.8557 63.8932 13.6982 62.5546 13.6982C61.2949 13.6982 60.3238 13.9476 59.6414 14.4462C58.9852 14.9449 58.6572 15.6142 58.6572 16.454C58.6572 17.2414 58.959 17.8976 59.5626 18.4225C60.1925 18.9474 60.9668 19.4329 61.8854 19.8791C62.8302 20.3253 63.8407 20.7846 64.9168 21.257C66.0191 21.7294 67.0295 22.3068 67.9481 22.9892C68.893 23.6453 69.6672 24.4721 70.2709 25.4694C70.9008 26.4405 71.2157 27.6609 71.2157 29.1307C71.2157 30.6004 70.9664 31.8734 70.4677 32.9494C69.9953 33.9993 69.3129 34.8785 68.4205 35.5871C67.5544 36.2958 66.4915 36.8207 65.2317 37.1619C63.9982 37.5031 62.6334 37.6737 61.1374 37.6737C59.169 37.6737 57.4367 37.4899 55.9407 37.1225C54.4447 36.7551 53.3424 36.3876 52.6338 36.0202L54.366 31.4141C54.6547 31.5715 55.0221 31.7421 55.4683 31.9259C55.9407 32.1096 56.4657 32.2802 57.0431 32.4376C57.6205 32.5951 58.2241 32.7263 58.854 32.8313C59.5101 32.9363 60.1794 32.9888 60.8618 32.9888C62.4628 32.9888 63.6832 32.7263 64.5231 32.2014C65.3892 31.6503 65.8222 30.8235 65.8222 29.7212Z" fill="#504A62"/>
<path d="M72.6437 17.4383H75.3602V13.7376L80.4781 12.281V17.4383H85.281V21.7688H80.4781V29.3275C80.4781 30.6923 80.6093 31.6765 80.8718 32.2802C81.1605 32.8576 81.6854 33.1463 82.4465 33.1463C82.9714 33.1463 83.4176 33.0938 83.785 32.9888C84.1787 32.8838 84.6118 32.7263 85.0842 32.5164L85.9897 36.4532C85.281 36.7944 84.4543 37.0831 83.5094 37.3193C82.5646 37.5555 81.6066 37.6737 80.6355 37.6737C78.8246 37.6737 77.4861 37.2144 76.62 36.2958C75.7801 35.3509 75.3602 33.8155 75.3602 31.6896V21.7688H72.6437V17.4383Z" fill="#504A62"/>
<path d="M88.2979 18.5799C89.3478 18.1075 90.5944 17.7401 92.0379 17.4776C93.4815 17.1889 94.9906 17.0446 96.5653 17.0446C97.9301 17.0446 99.0718 17.2152 99.9904 17.5564C100.909 17.8713 101.631 18.3306 102.156 18.9343C102.707 19.5379 103.087 20.2597 103.297 21.0995C103.534 21.9394 103.652 22.8842 103.652 23.9341C103.652 25.0889 103.612 26.2568 103.534 27.4378C103.455 28.5927 103.402 29.7343 103.376 30.8629C103.376 31.9915 103.415 33.0938 103.494 34.1699C103.573 35.2197 103.77 36.217 104.085 37.1619H99.9116L99.0849 34.4454H98.8881C98.3631 35.2591 97.6283 35.9677 96.6834 36.5713C95.7648 37.1487 94.5707 37.4374 93.1009 37.4374C92.1823 37.4374 91.3556 37.3062 90.6207 37.0438C89.8858 36.7551 89.2559 36.3614 88.731 35.8627C88.2061 35.3378 87.7993 34.7341 87.5106 34.0518C87.2219 33.3431 87.0775 32.5557 87.0775 31.6896C87.0775 30.4823 87.34 29.4719 87.8649 28.6583C88.416 27.8184 89.1903 27.1491 90.1876 26.6505C91.2112 26.1256 92.4185 25.7712 93.8095 25.5875C95.2268 25.3776 96.8015 25.3119 98.5337 25.3907C98.7175 23.9209 98.6125 22.8711 98.2188 22.2412C97.8251 21.5851 96.9459 21.257 95.5811 21.257C94.5575 21.257 93.4683 21.362 92.3135 21.5719C91.185 21.7819 90.2532 22.0575 89.5184 22.3987L88.2979 18.5799ZM94.7937 33.225C95.8173 33.225 96.6309 33.0019 97.2346 32.5557C97.8382 32.0833 98.2844 31.5847 98.5731 31.0597V28.5008C97.7595 28.4221 96.9721 28.4089 96.211 28.4614C95.4761 28.5139 94.82 28.632 94.2426 28.8157C93.6652 28.9995 93.2059 29.2619 92.8647 29.6031C92.5235 29.9443 92.3529 30.3774 92.3529 30.9023C92.3529 31.6371 92.5629 32.2146 92.9828 32.6345C93.429 33.0282 94.0326 33.225 94.7937 33.225Z" fill="#504A62"/>
<path d="M121.883 35.9021C121.096 36.4795 120.138 36.9125 119.009 37.2012C117.907 37.5162 116.765 37.6737 115.584 37.6737C114.009 37.6737 112.671 37.4243 111.568 36.9256C110.492 36.427 109.613 35.7315 108.931 34.8391C108.248 33.9205 107.75 32.8182 107.435 31.5322C107.146 30.2461 107.002 28.8289 107.002 27.2804C107.002 23.9472 107.75 21.3882 109.246 19.6035C110.742 17.7926 112.92 16.8871 115.781 16.8871C117.224 16.8871 118.379 17.0052 119.245 17.2414C120.138 17.4776 120.938 17.7794 121.647 18.1469L120.426 22.3199C119.823 22.0312 119.219 21.8082 118.615 21.6507C118.038 21.4932 117.369 21.4145 116.608 21.4145C115.19 21.4145 114.114 21.8869 113.379 22.8317C112.644 23.7503 112.277 25.2332 112.277 27.2804C112.277 28.1202 112.369 28.8945 112.553 29.6031C112.736 30.3117 113.012 30.9285 113.379 31.4534C113.747 31.9783 114.219 32.3983 114.797 32.7132C115.4 33.0019 116.096 33.1463 116.883 33.1463C117.749 33.1463 118.484 33.0413 119.088 32.8313C119.691 32.5951 120.229 32.3195 120.702 32.0046L121.883 35.9021Z" fill="#504A62"/>
<path d="M131.474 28.9732H130.096V37.1225H124.978V9.56456H130.096V25.8237L131.277 25.2726L135.765 17.4383H141.395L136.67 24.9183L134.663 26.4143L136.828 27.9496L142.143 37.1225H136.277L131.474 28.9732Z" fill="#504A62"/>
<rect opacity="0.5" width="28.7561" height="28.7561" rx="5" transform="matrix(-0.707107 0.707106 -0.707107 -0.707106 40.6675 20.7122)" fill="#FFBE4D"/>
<rect opacity="0.5" x="44.6338" y="24.6785" width="28.7561" height="28.7561" rx="5" transform="rotate(135 44.6338 24.6785)" fill="#E89C38"/>
</svg>
